<svg width="151" height="36" viewBox="0 0 151 36" fill="none" xmlns="http://www.w3.org/2000/svg">
<g clip-path="url(#clip0_0_3)">
<path d="M73.761 11.25C76.3371 13.7811 77.7855 17.2147 77.7879 20.7959V36H64.0606V22.6597C64.0583 21.4655 63.574 20.321 62.7141 19.4777L57.9727 14.8179C57.1133 13.974 55.9485 13.4999 54.734 13.5H50.3333V36H36.6061V0H56.6293C58.432 -2.54877e-06 60.2171 0.34919 61.8826 1.02764C63.5481 1.70609 65.0614 2.70051 66.3361 3.95413L73.761 11.25ZM137.273 0V13.3403C137.27 14.5345 136.786 15.6789 135.926 16.5222L131.181 21.1819C130.757 21.5998 130.252 21.9313 129.697 22.1575C129.142 22.3836 128.547 22.5 127.946 22.5H121.352C122.78 20.3255 123.542 17.7926 123.545 15.204V0H109.818V13.3403C109.816 14.5345 109.332 15.6789 108.472 16.5222L103.727 21.1819C103.302 21.5998 102.798 21.9313 102.242 22.1575C101.687 22.3836 101.092 22.5 100.491 22.5H96.0909V0H82.3636V36H102.387C106.029 36 109.521 34.5778 112.097 32.0459L116.682 27.5386V36H129.841C133.483 36 136.976 34.5778 139.551 32.0459L146.973 24.7499C149.549 22.2188 150.998 18.7851 151 15.204V0H137.273ZM0 13.5H9.15152V36H22.8788V13.5H32.0303V0H0V13.5Z" fill="black"/>
</g>
<defs>
<clipPath id="clip0_0_3">
<rect width="151" height="36" fill="white"/>
</clipPath>
</defs>
</svg>
